# Blender v2.78 (sub 0) OBJ File: ''
# www.blender.org
mtllib cylinder_medium_poly.mtl
o Cylinder
v 0.000000 -0.500000 -0.500000
v 0.000000 0.500000 -0.500000
v 0.097545 -0.500000 -0.490393
v 0.097545 0.500000 -0.490393
v 0.191342 -0.500000 -0.461940
v 0.191342 0.500000 -0.461940
v 0.277785 -0.500000 -0.415735
v 0.277785 0.500000 -0.415735
v 0.353553 -0.500000 -0.353553
v 0.353553 0.500000 -0.353553
v 0.415735 -0.500000 -0.277785
v 0.415735 0.500000 -0.277785
v 0.461940 -0.500000 -0.191342
v 0.461940 0.500000 -0.191342
v 0.490393 -0.500000 -0.097545
v 0.490393 0.500000 -0.097545
v 0.500000 -0.500000 -0.000000
v 0.500000 0.500000 -0.000000
v 0.490393 -0.500000 0.097545
v 0.490393 0.500000 0.097545
v 0.461940 -0.500000 0.191342
v 0.461940 0.500000 0.191342
v 0.415735 -0.500000 0.277785
v 0.415735 0.500000 0.277785
v 0.353553 -0.500000 0.353553
v 0.353553 0.500000 0.353553
v 0.277785 -0.500000 0.415735
v 0.277785 0.500000 0.415735
v 0.191342 -0.500000 0.461940
v 0.191342 0.500000 0.461940
v 0.097545 -0.500000 0.490393
v 0.097545 0.500000 0.490393
v -0.000000 -0.500000 0.500000
v -0.000000 0.500000 0.500000
v -0.097545 -0.500000 0.490393
v -0.097545 0.500000 0.490393
v -0.191342 -0.500000 0.461940
v -0.191342 0.500000 0.461940
v -0.277785 -0.500000 0.415735
v -0.277785 0.500000 0.415735
v -0.353554 -0.500000 0.353553
v -0.353554 0.500000 0.353553
v -0.415735 -0.500000 0.277785
v -0.415735 0.500000 0.277785
v -0.461940 -0.500000 0.191341
v -0.461940 0.500000 0.191341
v -0.490393 -0.500000 0.097545
v -0.490393 0.500000 0.097545
v -0.500000 -0.500000 -0.000000
v -0.500000 0.500000 -0.000000
v -0.490393 -0.500000 -0.097546
v -0.490393 0.500000 -0.097546
v -0.461940 -0.500000 -0.191342
v -0.461940 0.500000 -0.191342
v -0.415734 -0.500000 -0.277786
v -0.415734 0.500000 -0.277786
v -0.353553 -0.500000 -0.353554
v -0.353553 0.500000 -0.353554
v -0.277785 -0.500000 -0.415735
v -0.277785 0.500000 -0.415735
v -0.191341 -0.500000 -0.461940
v -0.191341 0.500000 -0.461940
v -0.097544 -0.500000 -0.490393
v -0.097544 0.500000 -0.490393
vn 0.0980 0.0000 -0.9952
vn 0.2903 0.0000 -0.9569
vn 0.4714 0.0000 -0.8819
vn 0.6344 0.0000 -0.7730
vn 0.7730 0.0000 -0.6344
vn 0.8819 0.0000 -0.4714
vn 0.9569 0.0000 -0.2903
vn 0.9952 0.0000 -0.0980
vn 0.9952 0.0000 0.0980
vn 0.9569 0.0000 0.2903
vn 0.8819 0.0000 0.4714
vn 0.7730 0.0000 0.6344
vn 0.6344 0.0000 0.7730
vn 0.4714 0.0000 0.8819
vn 0.2903 0.0000 0.9569
vn 0.0980 0.0000 0.9952
vn -0.0980 0.0000 0.9952
vn -0.2903 0.0000 0.9569
vn -0.4714 0.0000 0.8819
vn -0.6344 0.0000 0.7730
vn -0.7730 0.0000 0.6344
vn -0.8819 0.0000 0.4714
vn -0.9569 0.0000 0.2903
vn -0.9952 0.0000 0.0980
vn -0.9952 0.0000 -0.0980
vn -0.9569 0.0000 -0.2903
vn -0.8819 0.0000 -0.4714
vn -0.7730 0.0000 -0.6344
vn -0.6344 0.0000 -0.7730
vn -0.4714 0.0000 -0.8819
vn -0.2903 0.0000 -0.9569
vn -0.0980 0.0000 -0.9952
usemtl None
s off
f 2//1 3//1 1//1
f 4//2 5//2 3//2
f 6//3 7//3 5//3
f 8//4 9//4 7//4
f 10//5 11//5 9//5
f 12//6 13//6 11//6
f 14//7 15//7 13//7
f 16//8 17//8 15//8
f 18//9 19//9 17//9
f 20//10 21//10 19//10
f 22//11 23//11 21//11
f 24//12 25//12 23//12
f 26//13 27//13 25//13
f 28//14 29//14 27//14
f 30//15 31//15 29//15
f 32//16 33//16 31//16
f 34//17 35//17 33//17
f 36//18 37//18 35//18
f 38//19 39//19 37//19
f 40//20 41//20 39//20
f 42//21 43//21 41//21
f 44//22 45//22 43//22
f 46//23 47//23 45//23
f 48//24 49//24 47//24
f 50//25 51//25 49//25
f 52//26 53//26 51//26
f 54//27 55//27 53//27
f 56//28 57//28 55//28
f 58//29 59//29 57//29
f 60//30 61//30 59//30
f 62//31 63//31 61//31
f 64//32 1//32 63//32
f 2//1 4//1 3//1
f 4//2 6//2 5//2
f 6//3 8//3 7//3
f 8//4 10//4 9//4
f 10//5 12//5 11//5
f 12//6 14//6 13//6
f 14//7 16//7 15//7
f 16//8 18//8 17//8
f 18//9 20//9 19//9
f 20//10 22//10 21//10
f 22//11 24//11 23//11
f 24//12 26//12 25//12
f 26//13 28//13 27//13
f 28//14 30//14 29//14
f 30//15 32//15 31//15
f 32//16 34//16 33//16
f 34//17 36//17 35//17
f 36//18 38//18 37//18
f 38//19 40//19 39//19
f 40//20 42//20 41//20
f 42//21 44//21 43//21
f 44//22 46//22 45//22
f 46//23 48//23 47//23
f 48//24 50//24 49//24
f 50//25 52//25 51//25
f 52//26 54//26 53//26
f 54//27 56//27 55//27
f 56//28 58//28 57//28
f 58//29 60//29 59//29
f 60//30 62//30 61//30
f 62//31 64//31 63//31
f 64//32 2//32 1//32
